<svg width="84" height="84" viewBox="0 0 84 84" fill="none" xmlns="http://www.w3.org/2000/svg">
<g filter="url(#filter0_d_30_1758)">
<circle cx="42" cy="42" r="30" fill="#F3F3ED"/>
</g>
<path d="M44.6127 26.0002C42.1428 27.7555 40.7727 30.2216 40.3223 33.2687L43.1674 34.8731C43.8146 34.4789 44.3672 34.0322 44.8442 33.5418C45.1477 35.0831 46.2727 36.6289 47.6048 37.3812L52.1395 39.9424C53.8333 40.899 55.908 40.5992 57.2497 39.3391L57.8015 39.6502L59 37.6182L58.4504 37.3071C58.8953 35.5401 58.1214 33.6306 56.4275 32.6738L51.8928 30.1127C50.5247 29.3399 48.526 29.1719 46.9925 29.7381C47.1965 29.0556 47.3461 28.3425 47.4555 27.6066L44.6127 26V26.0002ZM45.4651 37.8513C42.0065 39.1497 39.611 41.6185 38.1048 45.0519L40.9217 47.8099C41.8072 47.5466 42.5999 47.1929 43.3167 46.7643C43.1782 48.6642 43.9984 50.8199 45.3179 52.1109L49.8116 56.5071C51.4899 58.1493 54.0196 58.4359 55.9969 57.3707L56.5421 57.9042L58.5997 55.8912L58.0566 55.3579C59.1461 53.4232 58.8504 50.9488 57.1717 49.3065L52.6782 44.9101C51.3226 43.5839 49.0347 42.7725 47.0552 42.965C47.5135 42.2278 47.9176 41.4381 48.282 40.6093L45.465 37.8512L45.4651 37.8513ZM32.854 37.8956C30.3995 37.8946 28.1215 38.73 26 40.2812L26.8806 43.4963C27.65 43.6713 28.3902 43.7402 29.1069 43.7227C28.1756 45.0692 27.8422 47.0053 28.2545 48.5107L29.6585 53.637C30.183 55.5518 31.9272 56.8186 33.8536 56.8563L34.0245 57.4788L36.4238 56.8501L36.2528 56.2278C37.9012 55.2525 38.7633 53.3014 38.2391 51.387L36.8371 46.2606C36.4136 44.7148 35.0755 43.1605 33.529 42.4761C34.1891 42.1225 34.8326 41.7067 35.4633 41.2463L34.5827 38.0331C33.9971 37.9424 33.4205 37.8958 32.854 37.8956Z" fill="black"/>
<defs>
<filter id="filter0_d_30_1758" x="0" y="0" width="84" height="84" filterUnits="userSpaceOnUse" color-interpolation-filters="sRGB">
<feFlood flood-opacity="0" result="BackgroundImageFix"/>
<feColorMatrix in="SourceAlpha" type="matrix" values="0 0 0 0 0 0 0 0 0 0 0 0 0 0 0 0 0 0 127 0" result="hardAlpha"/>
<feMorphology radius="8" operator="erode" in="SourceAlpha" result="effect1_dropShadow_30_1758"/>
<feOffset/>
<feGaussianBlur stdDeviation="10"/>
<feComposite in2="hardAlpha" operator="out"/>
<feColorMatrix type="matrix" values="0 0 0 0 0 0 0 0 0 0 0 0 0 0 0 0 0 0 0.25 0"/>
<feBlend mode="normal" in2="BackgroundImageFix" result="effect1_dropShadow_30_1758"/>
<feBlend mode="normal" in="SourceGraphic" in2="effect1_dropShadow_30_1758" result="shape"/>
</filter>
</defs>
</svg>
