<svg width="84" height="82" viewBox="0 0 84 82" fill="none" xmlns="http://www.w3.org/2000/svg">
<g filter="url(#filter0_d_30_1756)">
<circle cx="42" cy="40" r="30" fill="#F3F3ED"/>
</g>
<path d="M36.5512 50.489C35.0031 49.9158 33.6255 48.9561 32.5479 47.7003C31.4703 46.4445 30.728 44.9338 30.3909 43.3102L28.0668 32.3168C27.7307 30.7966 28.6968 29.3046 30.2089 28.9808L43.8875 26.0671L43.9295 26.053C45.4276 25.7574 46.8977 26.7286 47.2057 28.2207L47.6957 30.5714L53.786 31.8805H53.828C55.2981 32.2183 56.2501 33.7104 55.9421 35.2024L53.618 46.2099C53.3497 47.4744 52.8363 48.6733 52.1071 49.7383C51.3779 50.8032 50.4472 51.7133 49.3681 52.4166C48.2889 53.1198 47.0826 53.6024 45.8179 53.8368C44.5533 54.0713 43.255 54.0529 41.9974 53.7828C39.864 53.3352 37.9442 52.1741 36.5512 50.489ZM53.198 34.6253L39.5193 31.6975L37.1952 42.705V42.7472C36.3972 46.5196 38.8193 50.2357 42.5855 51.038C46.3516 51.8403 50.0758 49.4192 50.8739 45.6328L53.198 34.6253ZM47.5977 46.3366C47.1554 47.0894 46.4889 47.6834 45.6924 48.0345C44.896 48.3856 44.0099 48.4761 43.1595 48.2932C42.3117 48.1108 41.5418 47.6669 40.957 47.0234C40.3722 46.38 40.0017 45.569 39.8973 44.7038L43.5 46L47.5977 46.3366ZM37.0552 30.3884L30.7969 31.7397L33.121 42.7331L33.135 42.7753C33.345 43.7747 33.765 44.6756 34.3391 45.4498C34.1991 44.3659 34.2271 43.2399 34.4651 42.1138L35.0671 39.2986C34.4371 39.1859 33.891 38.834 33.597 38.3273C33.681 37.4687 34.3811 36.7086 35.3471 36.4833H35.6971L36.7892 31.1204C36.8452 30.8529 36.9292 30.6136 37.0552 30.3884ZM46.2396 40.3261C46.6877 39.5801 47.6397 39.1859 48.6057 39.3971C49.5718 39.5942 50.2718 40.3402 50.3978 41.2129C49.9358 41.9449 48.9978 42.339 48.0177 42.1138C47.0517 41.9308 46.3516 41.1847 46.2396 40.3261ZM39.4073 38.8622C39.8553 38.1162 40.7934 37.722 41.7594 37.9332C42.6975 38.1302 43.4395 38.8904 43.5515 39.749C43.0895 40.4809 42.1514 40.8892 41.1854 40.7062C40.2193 40.4669 39.5193 39.7208 39.4073 38.8622ZM41.9554 29.3468L44.6996 29.938L44.4755 28.8119L41.9554 29.3468Z" fill="black"/>
<defs>
<filter id="filter0_d_30_1756" x="0" y="-2" width="84" height="84" filterUnits="userSpaceOnUse" color-interpolation-filters="sRGB">
<feFlood flood-opacity="0" result="BackgroundImageFix"/>
<feColorMatrix in="SourceAlpha" type="matrix" values="0 0 0 0 0 0 0 0 0 0 0 0 0 0 0 0 0 0 127 0" result="hardAlpha"/>
<feMorphology radius="8" operator="erode" in="SourceAlpha" result="effect1_dropShadow_30_1756"/>
<feOffset/>
<feGaussianBlur stdDeviation="10"/>
<feComposite in2="hardAlpha" operator="out"/>
<feColorMatrix type="matrix" values="0 0 0 0 0 0 0 0 0 0 0 0 0 0 0 0 0 0 0.25 0"/>
<feBlend mode="normal" in2="BackgroundImageFix" result="effect1_dropShadow_30_1756"/>
<feBlend mode="normal" in="SourceGraphic" in2="effect1_dropShadow_30_1756" result="shape"/>
</filter>
</defs>
</svg>
