<svg width="84" height="82" viewBox="0 0 84 82" fill="none" xmlns="http://www.w3.org/2000/svg">
<g filter="url(#filter0_d_30_1754)">
<circle cx="42" cy="40" r="30" fill="#F3F3ED"/>
</g>
<path d="M42 26C39.2311 26 36.5243 26.8211 34.222 28.3594C31.9197 29.8978 30.1253 32.0843 29.0657 34.6424C28.0061 37.2006 27.7288 40.0155 28.269 42.7313C28.8092 45.447 30.1426 47.9416 32.1005 49.8995C34.0584 51.8574 36.553 53.1908 39.2687 53.731C41.9845 54.2712 44.7994 53.9939 47.3576 52.9343C49.9157 51.8747 52.1022 50.0803 53.6406 47.778C55.1789 45.4757 56 42.7689 56 40C55.9958 36.2883 54.5194 32.7298 51.8948 30.1052C49.2702 27.4806 45.7117 26.0042 42 26V26ZM30.02 40.394L31.358 40.84L33 43.303V44.586C33.0001 44.8512 33.1055 45.1055 33.293 45.293L36 48V50.377C34.2379 49.3573 32.7644 47.9058 31.7182 46.1593C30.672 44.4128 30.0876 42.4288 30.02 40.394V40.394ZM42 52C41.1349 51.9982 40.2725 51.9027 39.428 51.715L40 50L41.805 45.488C41.8652 45.3374 41.8877 45.1743 41.8709 45.013C41.854 44.8517 41.7981 44.6969 41.708 44.562L40.297 42.445C40.2057 42.3081 40.0819 42.1958 39.9368 42.1182C39.7917 42.0406 39.6296 42 39.465 42H34.535L33.287 40.127L35.414 38H37V40H39V37.266L42.868 30.496L41.132 29.504L40.277 31H37.535L36.45 29.371C37.9078 28.6017 39.51 28.1447 41.1543 28.0292C42.7986 27.9136 44.4489 28.1421 46 28.7V32C46 32.2652 46.1054 32.5196 46.2929 32.7071C46.4804 32.8946 46.7348 33 47 33H48.465C48.6296 33 48.7917 32.9594 48.9368 32.8818C49.0819 32.8042 49.2057 32.6919 49.297 32.555L50.174 31.239C51.3162 32.3043 52.24 33.5817 52.894 35H48.82C48.5889 35.0001 48.365 35.0803 48.1863 35.2269C48.0077 35.3735 47.8853 35.5774 47.84 35.804L47.117 40.274C47.0828 40.4844 47.1167 40.7003 47.2139 40.8901C47.311 41.0799 47.4663 41.2337 47.657 41.329L51 43L51.685 47.056C50.5751 48.5856 49.119 49.8309 47.4358 50.6901C45.7525 51.5494 43.8899 51.9982 42 52V52Z" fill="black"/>
<defs>
<filter id="filter0_d_30_1754" x="0" y="-2" width="84" height="84" filterUnits="userSpaceOnUse" color-interpolation-filters="sRGB">
<feFlood flood-opacity="0" result="BackgroundImageFix"/>
<feColorMatrix in="SourceAlpha" type="matrix" values="0 0 0 0 0 0 0 0 0 0 0 0 0 0 0 0 0 0 127 0" result="hardAlpha"/>
<feMorphology radius="8" operator="erode" in="SourceAlpha" result="effect1_dropShadow_30_1754"/>
<feOffset/>
<feGaussianBlur stdDeviation="10"/>
<feComposite in2="hardAlpha" operator="out"/>
<feColorMatrix type="matrix" values="0 0 0 0 0 0 0 0 0 0 0 0 0 0 0 0 0 0 0.25 0"/>
<feBlend mode="normal" in2="BackgroundImageFix" result="effect1_dropShadow_30_1754"/>
<feBlend mode="normal" in="SourceGraphic" in2="effect1_dropShadow_30_1754" result="shape"/>
</filter>
</defs>
</svg>
