<svg width="84" height="82" viewBox="0 0 84 82" fill="none" xmlns="http://www.w3.org/2000/svg">
<g filter="url(#filter0_d_30_1757)">
<circle cx="42" cy="40" r="30" fill="#F3F3ED"/>
</g>
<path d="M42 37.1504C41.7 36.7712 41.3125 36.4738 40.8375 36.2584C40.3625 36.044 39.85 35.9368 39.3 35.9368C38.4 35.9368 37.625 36.2655 36.975 36.9229C36.325 37.5803 36 38.3641 36 39.2743C36 40.0582 36.1935 40.7914 36.5805 41.4741C36.9685 42.1568 37.9 43.1808 39.375 44.5461L40.9875 46.0632C41.2625 46.3413 41.6 46.4804 42 46.4804C42.4 46.4804 42.7375 46.3413 43.0125 46.0632L44.5875 44.5841C46.0375 43.2187 46.969 42.182 47.382 41.4741C47.794 40.7661 48 40.0329 48 39.2743C48 38.3641 47.675 37.5803 47.025 36.9229C46.375 36.2655 45.6 35.9368 44.7 35.9368C44.175 35.9368 43.669 36.044 43.182 36.2584C42.694 36.4738 42.3 36.7712 42 37.1504V37.1504ZM42 56H41.625C41.5 56 41.3875 55.9747 41.2875 55.9241C38.0125 54.8875 35.3125 52.8329 33.1875 49.7603C31.0625 46.6888 30 43.2946 30 39.5778V32.4096C30 31.7775 30.1815 31.2086 30.5445 30.7029C30.9065 30.1972 31.375 29.8306 31.95 29.603L40.95 26.1896C41.3 26.0632 41.65 26 42 26C42.35 26 42.7 26.0632 43.05 26.1896L52.05 29.603C52.625 29.8306 53.094 30.1972 53.457 30.7029C53.819 31.2086 54 31.7775 54 32.4096V39.5778C54 43.2946 52.9375 46.6888 50.8125 49.7603C48.6875 52.8329 45.9875 54.8875 42.7125 55.9241C42.5875 55.9747 42.35 56 42 56V56ZM42 52.9279C44.6 52.0936 46.75 50.4248 48.45 47.9216C50.15 45.4185 51 42.6372 51 39.5778V32.4096L42 28.9962L33 32.4096V39.5778C33 42.6372 33.85 45.4185 35.55 47.9216C37.25 50.4248 39.4 52.0936 42 52.9279Z" fill="black"/>
<defs>
<filter id="filter0_d_30_1757" x="0" y="-2" width="84" height="84" filterUnits="userSpaceOnUse" color-interpolation-filters="sRGB">
<feFlood flood-opacity="0" result="BackgroundImageFix"/>
<feColorMatrix in="SourceAlpha" type="matrix" values="0 0 0 0 0 0 0 0 0 0 0 0 0 0 0 0 0 0 127 0" result="hardAlpha"/>
<feMorphology radius="8" operator="erode" in="SourceAlpha" result="effect1_dropShadow_30_1757"/>
<feOffset/>
<feGaussianBlur stdDeviation="10"/>
<feComposite in2="hardAlpha" operator="out"/>
<feColorMatrix type="matrix" values="0 0 0 0 0 0 0 0 0 0 0 0 0 0 0 0 0 0 0.25 0"/>
<feBlend mode="normal" in2="BackgroundImageFix" result="effect1_dropShadow_30_1757"/>
<feBlend mode="normal" in="SourceGraphic" in2="effect1_dropShadow_30_1757" result="shape"/>
</filter>
</defs>
</svg>
